# xmcd
#
# Track frame offsets: 
#        150
#        13794
#        27508
#        41443
#        54454
#        68533
#        81405
#        95228
#        108039
#        122329
#        134859
#        148091
#        161665
#        174760
#        189319
#        201409
#        214070
#        228040
#        240850
#        253786
#        267353
#        279653
#        292680
#        305967
#        319033
#
# Disc length: 4441 seconds
#
# Revision: 0
# Processed by: cddbd v1.5.2PL0 Copyright (c) Steve Scherf et al.
# Submitted via: ExactAudioCopy v0.99pb5
#
DISCID=67115719
DTITLE=Barbara Demick - Nothing to Envy [6 of 10]
DYEAR=2010
DGENRE=Audiobook
TTITLE0=06-01
TTITLE1=06-02
TTITLE2=06-03
TTITLE3=06-04
TTITLE4=06-05
TTITLE5=06-06
TTITLE6=06-07
TTITLE7=06-08
TTITLE8=06-09
TTITLE9=06-10
TTITLE10=06-11
TTITLE11=06-12
TTITLE12=06-13
TTITLE13=06-14
TTITLE14=06-15
TTITLE15=06-16
TTITLE16=06-17
TTITLE17=06-18
TTITLE18=06-19
TTITLE19=06-20
TTITLE20=06-21
TTITLE21=06-22
TTITLE22=06-23
TTITLE23=06-24
TTITLE24=06-25
EXTD=
EXTT0=
EXTT1=
EXTT2=
EXTT3=
EXTT4=
EXTT5=
EXTT6=
EXTT7=
EXTT8=
EXTT9=
EXTT10=
EXTT11=
EXTT12=
EXTT13=
EXTT14=
EXTT15=
EXTT16=
EXTT17=
EXTT18=
EXTT19=
EXTT20=
EXTT21=
EXTT22=
EXTT23=
EXTT24=
PLAYORDER=
